<svg width="32" height="19" viewBox="0 0 32 19" fill="none" xmlns="http://www.w3.org/2000/svg">
<path d="M31.3 4.17L4.3 17.36L1.11 18.92C0.6 19.17 0 18.79 0 18.22V17.13C0 14.08 1.67 11.3 4.3 9.88C4.48 9.78 4.66 9.7 4.84 9.61L19.4 3L24 0.940002C24.34 0.790002 24.69 0.670003 25.05 0.580003C25.75 0.400003 26.47 0.340002 27.19 0.400002C27.98 0.470002 28.75 0.680003 29.48 1.03L31.3 1.91C32.24 2.37 32.24 3.72 31.3 4.17Z" fill="url(#paint0_linear_62_31)"/>
<defs>
<linearGradient id="paint0_linear_62_31" x1="-0.94" y1="17" x2="30.06" y2="0.500001" gradientUnits="userSpaceOnUse">
<stop stop-color="#8903FF"/>
<stop offset="1" stop-color="#3547FF"/>
</linearGradient>
</defs>
</svg>
