<svg width="27" height="15" viewBox="0 0 27 15" fill="none" xmlns="http://www.w3.org/2000/svg">
<path d="M0.71 0.0499866C1.09 0.229987 1.47 0.419987 1.84 0.599987C3.6 1.44999 5.35 2.30999 7.11 3.15999C9.55 4.33999 11.98 5.52999 14.42 6.70999C16.7 7.81999 18.98 8.92999 21.26 10.03C23 10.88 24.74 11.77 26.54 12.49C25.26 12.23 23.91 12.62 22.73 13.12C21.71 13.56 20.73 14.1 19.72 14.57C18.62 15.08 17.35 15.08 16.24 14.59L6.22 10.14C2.44 8.46999 0 4.67999 0 0.499987C0 0.129987 0.38 -0.110013 0.71 0.0499866Z" fill="url(#paint0_linear_62_30)"/>
<defs>
<linearGradient id="paint0_linear_62_30" x1="13.27" y1="14.96" x2="13.27" y2="-1.3504e-05" gradientUnits="userSpaceOnUse">
<stop stop-color="#3547FF"/>
<stop offset="1" stop-color="#8903FF"/>
</linearGradient>
</defs>
</svg>
